<svg width="127" height="171" viewBox="0 0 127 171" fill="none" xmlns="http://www.w3.org/2000/svg">
<path d="M78.176 29.264C64.72 29.264 54.4347 34.2907 47.32 44.344C40.2053 54.3973 36.648 68.1627 36.648 85.64C36.648 103.272 39.896 116.96 46.392 126.704C53.0427 136.293 63.6373 141.088 78.176 141.088C84.9813 141.088 91.7093 140.315 98.36 138.768C105.165 137.221 112.512 135.056 120.4 132.272V161.736C113.131 164.675 105.939 166.84 98.824 168.232C91.7093 169.624 83.744 170.32 74.928 170.32C57.9147 170.32 43.84 166.84 32.704 159.88C21.7227 152.765 13.6027 142.867 8.344 130.184C3.08533 117.347 0.456 102.421 0.456 85.408C0.456 68.704 3.472 53.9333 9.504 41.096C15.536 28.2587 24.2747 18.2053 35.72 10.936C47.32 3.66666 61.472 0.0319915 78.176 0.0319915C86.3733 0.0319915 94.5707 1.11466 102.768 3.27999C111.12 5.29066 119.085 8.07466 126.664 11.632L115.296 40.168C109.109 37.2293 102.845 34.6773 96.504 32.512C90.3173 30.3467 84.208 29.264 78.176 29.264Z" fill="black"/>
</svg>
