<svg width="215" height="265" viewBox="0 0 215 265" fill="none" xmlns="http://www.w3.org/2000/svg">
<path d="M125.52 125.28H214.44V251.28C200.52 255.84 186.48 259.2 172.32 261.36C158.16 263.52 142.08 264.6 124.08 264.6C97.44 264.6 75 259.32 56.76 248.76C38.52 237.96 24.6 222.72 15 203.04C5.64 183.12 0.960002 159.6 0.960002 132.48C0.960002 105.6 6.24 82.32 16.8 62.64C27.36 42.96 42.48 27.72 62.16 16.92C82.08 5.87999 106.08 0.359987 134.16 0.359987C148.56 0.359987 162.12 1.67998 174.84 4.31998C187.8 6.95999 199.8 10.68 210.84 15.48L198.6 43.56C189.48 39.48 179.16 36 167.64 33.12C156.36 30.24 144.6 28.8 132.36 28.8C101.64 28.8 77.64 38.04 60.36 56.52C43.32 75 34.8 100.32 34.8 132.48C34.8 152.88 38.04 171 44.52 186.84C51.24 202.44 61.68 214.68 75.84 223.56C90 232.2 108.6 236.52 131.64 236.52C142.92 236.52 152.52 235.92 160.44 234.72C168.36 233.52 175.56 232.08 182.04 230.4V154.08H125.52V125.28Z" fill="#457B9D"/>
</svg>
