<svg width="262" height="733" viewBox="0 0 262 733" fill="none" xmlns="http://www.w3.org/2000/svg">
<path d="M146.52 267.28H235.44V393.28C221.52 397.84 207.48 401.2 193.32 403.36C179.16 405.52 163.08 406.6 145.08 406.6C118.44 406.6 96 401.32 77.76 390.76C59.52 379.96 45.6 364.72 36 345.04C26.64 325.12 21.96 301.6 21.96 274.48C21.96 247.6 27.24 224.32 37.8 204.64C48.36 184.96 63.48 169.72 83.16 158.92C103.08 147.88 127.08 142.36 155.16 142.36C169.56 142.36 183.12 143.68 195.84 146.32C208.8 148.96 220.8 152.68 231.84 157.48L219.6 185.56C210.48 181.48 200.16 178 188.64 175.12C177.36 172.24 165.6 170.8 153.36 170.8C122.64 170.8 98.64 180.04 81.36 198.52C64.32 217 55.8 242.32 55.8 274.48C55.8 294.88 59.04 313 65.52 328.84C72.24 344.44 82.68 356.68 96.84 365.56C111 374.2 129.6 378.52 152.64 378.52C163.92 378.52 173.52 377.92 181.44 376.72C189.36 375.52 196.56 374.08 203.04 372.4V296.08H146.52V267.28Z" fill="#457B9D"/>
<path d="M149.176 220.264C135.72 220.264 125.435 225.291 118.32 235.344C111.205 245.397 107.648 259.163 107.648 276.64C107.648 294.272 110.896 307.96 117.392 317.704C124.043 327.293 134.637 332.088 149.176 332.088C155.981 332.088 162.709 331.315 169.36 329.768C176.165 328.221 183.512 326.056 191.4 323.272V352.736C184.131 355.675 176.939 357.84 169.824 359.232C162.709 360.624 154.744 361.32 145.928 361.32C128.915 361.32 114.84 357.84 103.704 350.88C92.7227 343.765 84.6027 333.867 79.344 321.184C74.0853 308.347 71.456 293.421 71.456 276.408C71.456 259.704 74.472 244.933 80.504 232.096C86.536 219.259 95.2747 209.205 106.72 201.936C118.32 194.667 132.472 191.032 149.176 191.032C157.373 191.032 165.571 192.115 173.768 194.28C182.12 196.291 190.085 199.075 197.664 202.632L186.296 231.168C180.109 228.229 173.845 225.677 167.504 223.512C161.317 221.347 155.208 220.264 149.176 220.264Z" fill="black"/>
</svg>
