<svg id="etix52s582r1" xmlns="http://www.w3.org/2000/svg" xmlns:xlink="http://www.w3.org/1999/xlink" viewBox="0 0 330 330" shape-rendering="geometricPrecision" text-rendering="geometricPrecision"><style><![CDATA[#etix52s582r2 {animation: etix52s582r2_c_o 3000ms linear 1 normal forwards}@keyframes etix52s582r2_c_o { 0% {opacity: 0} 33.333333% {opacity: 1} 66.666667% {opacity: 0} 100% {opacity: 0} }]]></style><defs><linearGradient id="etix52s582r10-fill" x1="-323.200000" y1="183.600000" x2="-7.777000" y2="738.854000" spreadMethod="pad" gradientUnits="userSpaceOnUse"><stop id="etix52s582r10-fill-0" offset="28.584200%" stop-color="rgb(69,123,157)"/><stop id="etix52s582r10-fill-1" offset="69.368700%" stop-color="rgb(89,163,210)"/><stop id="etix52s582r10-fill-2" offset="99.980000%" stop-color="rgb(14,135,210)"/><stop id="etix52s582r10-fill-3" offset="99.990000%" stop-color="rgb(39,91,236)"/><stop id="etix52s582r10-fill-4" offset="100%" stop-color="rgb(53,136,188)"/></linearGradient></defs><g id="etix52s582r2" opacity="0" clip-path="url(#etix52s582r3)"><clipPath id="etix52s582r3"><rect id="etix52s582r4" width="330" height="330" rx="0" ry="0" fill="rgb(255,255,255)" stroke="none" stroke-width="1"/></clipPath><g id="etix52s582r5"><g id="etix52s582r6" mask="url(#etix52s582r7)"><mask id="etix52s582r7" mask-type="alpha"><circle id="etix52s582r8" r="165" transform="matrix(1 0 0 1 165 165)" fill="rgb(196,196,196)" stroke="none" stroke-width="1"/></mask><g id="etix52s582r9"><rect id="etix52s582r10" width="640" height="360" rx="0" ry="0" transform="matrix(1 0 0 1 -147 -14)" fill="url(#etix52s582r10-fill)" stroke="none" stroke-width="1"/></g></g><path id="etix52s582r11" d="M155.012000,255.044000L141.740000,268.316000L78.856000,268.316000L65.584000,255.044000L65.584000,194.056000L99.080000,194.056000L99.080000,250.620000L122.780000,250.620000L122.780000,173.516000L114.248000,182.364000L80.436000,182.364000L65.584000,167.196000L65.584000,77.452000L80.436000,62.284000L106.032000,62.284000L122.780000,72.712000L123.096000,62.284000L155.012000,62.284000L155.012000,255.044000ZM122.780000,164.036000L122.780000,79.664000L99.080000,79.664000L99.080000,164.036000L122.780000,164.036000ZM268.113000,252.516000L252.945000,267.684000L187.217000,267.684000L172.049000,252.516000L172.049000,78.400000L187.217000,63.232000L252.945000,63.232000L268.113000,78.400000L268.113000,146.024000L230.825000,146.024000L230.825000,85.984000L209.653000,85.984000L209.653000,248.724000L230.825000,248.724000L230.825000,176.360000L268.113000,176.360000L268.113000,252.516000Z" fill="rgb(255,255,255)" stroke="none" stroke-width="1"/></g></g></svg>