<?xml version="1.0" standalone="no"?><svg xmlns="http://www.w3.org/2000/svg" viewBox="0 0 1440 320"><path fill="#ecf1f7" fill-opacity="1" d="M0,160L34.3,138.7C68.6,117,137,75,206,64C274.3,53,343,75,411,74.7C480,75,549,53,617,58.7C685.7,64,754,96,823,96C891.4,96,960,64,1029,85.3C1097.1,107,1166,181,1234,181.3C1302.9,181,1371,107,1406,69.3L1440,32L1440,0L1405.7,0C1371.4,0,1303,0,1234,0C1165.7,0,1097,0,1029,0C960,0,891,0,823,0C754.3,0,686,0,617,0C548.6,0,480,0,411,0C342.9,0,274,0,206,0C137.1,0,69,0,34,0L0,0Z"></path></svg>